<svg width="24" height="24" viewBox="0 0 24 24" fill="none" xmlns="http://www.w3.org/2000/svg">
<g clip-path="url(#clip0_11583_8973)">
<rect width="24" height="24" rx="6" fill="white"/>
<path d="M20.4785 15.634C21.1516 15.634 21.6973 15.0884 21.6973 14.4153C21.6973 13.7422 21.1516 13.1965 20.4785 13.1965C19.8054 13.1965 19.2598 13.7422 19.2598 14.4153C19.2598 15.0884 19.8054 15.634 20.4785 15.634Z" fill="#2D50A5"/>
<path d="M15.971 4.07402C21.6574 4.13471 21.6119 10.8665 21.6119 10.8665C21.6119 11.4921 21.1045 11.9993 20.4785 11.9993C19.8526 11.9993 19.3451 11.4921 19.3451 10.8665C19.3451 10.8665 19.344 6.262 15.9449 6.33486C10.7978 6.44519 4.48995 19.3052 4.48995 19.3052C4.20869 19.8641 3.52736 20.0894 2.96814 19.8082C2.40892 19.5271 2.18359 18.8462 2.46485 18.2872C2.46485 18.2872 9.38601 3.86514 15.971 4.07402Z" fill="url(#paint0_linear_11583_8973)"/>
</g>
<defs>
<linearGradient id="paint0_linear_11583_8973" x1="2.22452" y1="15.3624" x2="19.3815" y2="7.23118" gradientUnits="userSpaceOnUse">
<stop stop-color="#6491FA"/>
<stop offset="0.8706" stop-color="#2D50A5"/>
<stop offset="1" stop-color="#2D50A5"/>
</linearGradient>
<clipPath id="clip0_11583_8973">
<rect width="24" height="24" fill="white"/>
</clipPath>
</defs>
</svg>
