<?xml version="1.0" standalone="no"?>
<!DOCTYPE svg PUBLIC "-//W3C//DTD SVG 20010904//EN"
 "http://www.w3.org/TR/2001/REC-SVG-20010904/DTD/svg10.dtd">
<svg version="1.0" xmlns="http://www.w3.org/2000/svg"
 width="512.000000pt" height="512.000000pt" viewBox="0 0 512.000000 512.000000"
 preserveAspectRatio="xMidYMid meet">
<metadata>
Created by potrace 1.14, written by Peter Selinger 2001-2017
</metadata>
<g transform="translate(0.000000,512.000000) scale(0.100000,-0.100000)"
fill="#000000" stroke="none">
<path d="M3196 4234 c-237 -43 -517 -185 -786 -400 -120 -96 -476 -454 -604
-609 -402 -484 -854 -1181 -1187 -1830 -59 -116 -110 -229 -114 -252 -9 -57
17 -143 57 -189 74 -84 196 -105 295 -50 62 34 76 54 178 251 491 949 1128
1842 1596 2238 362 306 652 419 924 362 118 -25 208 -75 294 -163 160 -163
242 -379 274 -723 9 -86 20 -156 30 -174 40 -78 135 -135 221 -135 93 0 200
84 226 176 24 84 -4 336 -60 552 -142 546 -472 876 -944 947 -126 18 -294 18
-400 -1z"/>
<path d="M4249 2272 c-240 -125 -150 -483 120 -482 106 1 183 48 234 144 30
57 30 165 0 221 -28 52 -88 110 -135 130 -62 25 -156 20 -219 -13z"/>
</g>
</svg>
